<?xml version="1.0" encoding="UTF-8" standalone="no"?>
<svg
   viewBox="0 0 262144 262144"
   version="1.1"
   id="svg2"
   sodipodi:docname="fuji.svg"
   xml:space="preserve"
   inkscape:version="1.3 (0e150ed, 2023-07-21)"
   inkscape:export-filename="fuji.png"
   inkscape:export-xdpi="96"
   inkscape:export-ydpi="96"
   width="262144"
   height="262144"
   xmlns:inkscape="http://www.inkscape.org/namespaces/inkscape"
   xmlns:sodipodi="http://sodipodi.sourceforge.net/DTD/sodipodi-0.dtd"
   xmlns:xlink="http://www.w3.org/1999/xlink"
   xmlns="http://www.w3.org/2000/svg"
   xmlns:svg="http://www.w3.org/2000/svg"><defs
     id="defs2"><linearGradient
       id="linearGradient2"
       inkscape:collect="always"><stop
         style="stop-color:#b700ff;stop-opacity:1;"
         offset="0"
         id="stop2" /><stop
         style="stop-color:#eacaff;stop-opacity:1;"
         offset="0.62786591"
         id="stop3" /></linearGradient><linearGradient
       inkscape:collect="always"
       xlink:href="#linearGradient2"
       id="linearGradient3"
       x1="11.583261"
       y1="268.0575"
       x2="497.31873"
       y2="268.0575"
       gradientUnits="userSpaceOnUse"
       gradientTransform="matrix(0.88969341,0,0,0.88969341,29.61662,-57.171645)" /></defs><sodipodi:namedview
     id="namedview2"
     pagecolor="#ffffff"
     bordercolor="#000000"
     borderopacity="0.25"
     inkscape:showpageshadow="2"
     inkscape:pageopacity="0.0"
     inkscape:pagecheckerboard="0"
     inkscape:deskcolor="#d1d1d1"
     inkscape:zoom="1.1049443"
     inkscape:cx="192.31739"
     inkscape:cy="295.0375"
     inkscape:window-width="1712"
     inkscape:window-height="957"
     inkscape:window-x="0"
     inkscape:window-y="39"
     inkscape:window-maximized="1"
     inkscape:current-layer="svg2" /><path
     id="path2"
     style="fill:url(#linearGradient3);stroke-width:0.889693"
     d="m 205.78777,134.11205 -2.14168,4.67437 C 166.56904,219.79738 115.78298,294.86817 52.174408,364.48038 L 39.92217,377.88796 H 472.07783 L 463.221,365.28003 C 409.43464,288.69709 348.07422,212.08714 321.85231,139.40193 l -1.91212,-5.28988 z m -6.96741,50.64108 7.72923,42.77815 17.49671,-38.95642 19.09604,38.95642 22.04747,-42.70752 6.42252,56.94251 21.69684,-56.94251 35.24567,42.70752 -2.55034,-39.12292 c 29.57783,58.00529 74.09719,115.97869 115.06308,173.46618 H 75.823729 C 124.76571,306.38174 165.96402,247.41417 198.82036,184.75313 Z m 51.96291,74.35597 -3.29702,9.26297 c -2.21466,0.63921 -4.33257,1.52083 -6.31153,2.61845 l -8.87953,-4.22282 -7.3786,7.37607 4.22283,8.88457 c -1.0944,1.97898 -1.98247,4.09364 -2.61845,6.31153 l -9.26045,3.29451 v 10.43345 l 9.26045,3.29198 c 0.63598,2.21788 1.52405,4.33255 2.61845,6.31153 l -4.22283,8.88205 7.3786,7.37859 8.87953,-4.22282 c 1.97896,1.09441 4.09687,1.97924 6.31153,2.61846 l 3.29702,9.26296 h 10.43346 l 3.29702,-9.26296 c 2.21787,-0.63922 4.33254,-1.52405 6.31153,-2.61846 l 8.87953,4.22282 7.37859,-7.37859 -4.22282,-8.88205 c 1.0944,-1.97898 1.97924,-4.09365 2.61845,-6.31153 l 9.26044,-3.29198 v -10.43345 l -9.26044,-3.29451 c -0.63921,-2.21789 -1.52405,-4.33255 -2.61845,-6.31153 l 4.22282,-8.87953 -7.37859,-7.37858 -8.87953,4.22029 c -1.97899,-1.09439 -4.09688,-1.97924 -6.31153,-2.61845 l -3.29702,-9.26297 z M 256,284.93794 c 7.13141,0 12.91316,5.78175 12.91316,12.91317 0,7.13141 -5.78175,12.91314 -12.91316,12.91314 -7.13143,0 -12.91316,-5.78173 -12.91316,-12.91314 0,-7.13142 5.78173,-12.91317 12.91316,-12.91317 z"
     sodipodi:nodetypes="ccccccccccccccccccccccccccccccccccccccccccccccccccccccsssss" /></svg>
